<svg xmlns="http://www.w3.org/2000/svg" viewBox="0 0 800 450" width="800" height="450">
  <!-- 背景 -->
  <rect width="800" height="450" fill="#7209b720" rx="10" ry="10"/>
  
  <!-- 装饰图形 -->
  <rect x="20" y="20" width="760" height="410" fill="white" opacity="0.1" rx="10" ry="10"/>
  
  <!-- 类别标记 -->
  <rect x="30" y="30" width="120" height="40" fill="#7209b7" rx="5" ry="5"/>
  <text x="90" y="55" font-family="Arial" font-size="16" font-weight="bold" text-anchor="middle" fill="white">娱乐</text>
  
  <!-- 随机图形装饰 -->
  <polygon points="584,269 582,323 605,323" fill="#7209b7" opacity="0.13658232650663837"/><polygon points="535,235 534,267 573,267" fill="#7209b7" opacity="0.2554700835944801"/><polygon points="181,341 203,362 219,362" fill="#7209b7" opacity="0.23555273698515175"/><polygon points="352,113 349,148 392,148" fill="#7209b7" opacity="0.27564759263087124"/><rect x="327" y="302" width="68" height="53" fill="#7209b7" opacity="0.24900153386684842" rx="5" ry="5"/><circle cx="231" cy="165" r="26" fill="#7209b7" opacity="0.16834231082363071"/><polygon points="345,244 330,296 376,296" fill="#7209b7" opacity="0.12083865408869442"/>
  
  <!-- 新闻编号 -->
  <text x="750" y="420" font-family="Arial" font-size="24" font-weight="bold" text-anchor="end" fill="#7209b7">#17</text>
</svg>