<svg xmlns="http://www.w3.org/2000/svg" viewBox="0 0 800 450" width="800" height="450">
  <!-- 背景 -->
  <rect width="800" height="450" fill="#4361ee20" rx="10" ry="10"/>
  
  <!-- 装饰图形 -->
  <rect x="20" y="20" width="760" height="410" fill="white" opacity="0.1" rx="10" ry="10"/>
  
  <!-- 类别标记 -->
  <rect x="30" y="30" width="120" height="40" fill="#4361ee" rx="5" ry="5"/>
  <text x="90" y="55" font-family="Arial" font-size="16" font-weight="bold" text-anchor="middle" fill="white">政治</text>
  
  <!-- 随机图形装饰 -->
  <rect x="587" y="104" width="53" height="35" fill="#4361ee" opacity="0.2470657506832887" rx="5" ry="5"/><rect x="523" y="162" width="70" height="25" fill="#4361ee" opacity="0.29313434195165244" rx="5" ry="5"/><rect x="466" y="338" width="104" height="44" fill="#4361ee" opacity="0.17236764246087038" rx="5" ry="5"/><rect x="637" y="277" width="101" height="21" fill="#4361ee" opacity="0.2786756562141064" rx="5" ry="5"/><rect x="356" y="149" width="70" height="30" fill="#4361ee" opacity="0.2806765151931804" rx="5" ry="5"/><polygon points="499,149 497,200 522,200" fill="#4361ee" opacity="0.22323759249707795"/><rect x="160" y="190" width="29" height="67" fill="#4361ee" opacity="0.26245014960795443" rx="5" ry="5"/><polygon points="666,320 638,366 719,366" fill="#4361ee" opacity="0.25806936490849475"/><circle cx="144" cy="301" r="29" fill="#4361ee" opacity="0.13418082067330991"/><polygon points="423,195 413,215 475,215" fill="#4361ee" opacity="0.2154967394665515"/><polygon points="386,348 393,368 437,368" fill="#4361ee" opacity="0.25724675554580806"/>
  
  <!-- 新闻编号 -->
  <text x="750" y="420" font-family="Arial" font-size="24" font-weight="bold" text-anchor="end" fill="#4361ee">#16</text>
</svg>