<svg xmlns="http://www.w3.org/2000/svg" viewBox="0 0 800 450" width="800" height="450">
  <!-- 背景 -->
  <rect width="800" height="450" fill="#f9414420" rx="10" ry="10"/>
  
  <!-- 装饰图形 -->
  <rect x="20" y="20" width="760" height="410" fill="white" opacity="0.1" rx="10" ry="10"/>
  
  <!-- 类别标记 -->
  <rect x="30" y="30" width="120" height="40" fill="#f94144" rx="5" ry="5"/>
  <text x="90" y="55" font-family="Arial" font-size="16" font-weight="bold" text-anchor="middle" fill="white">国际</text>
  
  <!-- 随机图形装饰 -->
  <rect x="368" y="204" width="88" height="79" fill="#f94144" opacity="0.2503670828710754" rx="5" ry="5"/><rect x="179" y="269" width="84" height="43" fill="#f94144" opacity="0.2671198628536553" rx="5" ry="5"/><rect x="505" y="129" width="116" height="78" fill="#f94144" opacity="0.1692521892348161" rx="5" ry="5"/><circle cx="204" cy="177" r="51" fill="#f94144" opacity="0.23039868426830565"/><circle cx="551" cy="270" r="54" fill="#f94144" opacity="0.23298742500696845"/><polygon points="371,289 363,340 413,340" fill="#f94144" opacity="0.2888270771413598"/><rect x="313" y="258" width="30" height="61" fill="#f94144" opacity="0.14711934413148017" rx="5" ry="5"/><circle cx="260" cy="118" r="14" fill="#f94144" opacity="0.16855159568335848"/><polygon points="232,220 227,276 280,276" fill="#f94144" opacity="0.2867112338523303"/>
  
  <!-- 新闻编号 -->
  <text x="750" y="420" font-family="Arial" font-size="24" font-weight="bold" text-anchor="end" fill="#f94144">#14</text>
</svg>